<svg xmlns="http://www.w3.org/2000/svg" viewBox="0 0 410 404">
  <defs>
    <linearGradient id="vite-grad1" x1="62.625%" x2="8.386%" y1="12.219%" y2="71.844%">
      <stop offset="0%" stop-color="#41D1FF" />
      <stop offset="100%" stop-color="#BD34FE" />
    </linearGradient>
    <linearGradient id="vite-grad2" x1="43.376%" x2="50.316%" y1="13.669%" y2="84.198%">
      <stop offset="0%" stop-color="#FFEA83" />
      <stop offset="8.333%" stop-color="#FFDD35" />
      <stop offset="100%" stop-color="#FFA800" />
    </linearGradient>
  </defs>
  <path
    fill="url(#vite-grad1)"
    d="M255.153.108L25.575 144.658a17 17 0 00-6.39 21.724L131.2 398.81a17 17 0 0024.236 6.237l94.004-61.29a17 17 0 0121.964 2.107l66.964 63.81a17 17 0 0028.518-8.43L409.41 18.333a17 17 0 00-24.552-17.54l-94.371 43.34a17 17 0 01-14.91.195L268.45 1.705a9.05 9.05 0 00-13.297-1.597z"
  />
  <path
    fill="url(#vite-grad2)"
    d="M145.344 285.274l46.028-183.49a8.9 8.9 0 0115.937-2.549l70.615 105.677a8.9 8.9 0 01-4.695 13.447l-63.491 23.458a8.9 8.9 0 00-5.567 6.415l-8.686 37.333c-1.7 7.305-11.787 7.51-13.782.286l-8.177-30.755a8.9 8.9 0 00-17.182-.046l-10.582 29.745c-2.83 7.951-14.395 6.964-15.718-1.5z"
  />
</svg>
